<svg width="122" height="9" viewBox="0 0 122 9" fill="none" xmlns="http://www.w3.org/2000/svg">
<path d="M2 6.54835C3.34721 4.86135 6.53298 1.59805 8.49832 2.04089C10.955 2.59444 13.2532 7.57636 16.3439 6.94374C19.4345 6.31111 20.6232 2.27813 24.4271 2.27813C28.231 2.27813 28.4688 6.94374 32.3519 6.94374C36.2351 6.94374 36.6313 2.59444 40.7522 2.27813C44.8731 1.96181 45.5863 6.54835 48.36 6.94374C51.1336 7.33913 53.9073 2.27813 57.3942 2.27813C60.8811 2.27813 60.3264 6.31111 65.1605 6.94374C69.9946 7.57636 69.1229 2.67352 73.2438 2.27813C77.3647 1.88273 77.2854 6.94374 81.3271 6.94374C85.3687 6.94374 86.2404 2.59444 89.8066 2.27813C93.3727 1.96181 93.3727 7.41821 97.8106 6.94374C102.248 6.46927 102.407 2.27813 105.656 2.27813C108.905 2.27813 109.302 6.94374 113.422 6.94374C116.719 6.94374 119.181 3.83333 120 2.27813" stroke="#8A32F5" stroke-width="4" stroke-linecap="round" stroke-linejoin="round"/>
</svg>
