<svg width="26" height="26" viewBox="0 0 26 26" fill="none" xmlns="http://www.w3.org/2000/svg">
<path fill-rule="evenodd" clip-rule="evenodd" d="M23.3418 18C24.149 18 24.8911 17.5186 25.1234 16.7455C25.1845 16.5418 25.2408 16.3361 25.2922 16.1283C25.5714 14.998 24.6396 14 23.4752 14H1.86685C0.702499 14 -0.229341 14.998 0.0499057 16.1283C0.101227 16.3361 0.157544 16.5418 0.218721 16.7455C0.450924 17.5186 1.19308 18 2.00026 18H23.3418ZM21.2538 22.7642C22.4406 21.7202 21.5528 20 19.9722 20H5.3699C3.78925 20 2.90145 21.7202 4.08825 22.7642C6.37791 24.7784 9.38182 26 12.671 26C15.9603 26 18.9642 24.7784 21.2538 22.7642ZM2.00026 8C1.19308 8 0.450924 8.48142 0.21872 9.25448C0.157543 9.45815 0.101227 9.66393 0.0499055 9.87168C-0.229341 11.002 0.702501 12 1.86685 12H23.4752C24.6396 12 25.5714 11.002 25.2922 9.87168C25.2408 9.66393 25.1845 9.45815 25.1234 9.25448C24.8911 8.48142 24.149 8 23.3418 8H2.00026ZM12.671 0C9.38182 0 6.37791 1.22157 4.08824 3.23578C2.90145 4.2798 3.78925 6 5.3699 6H19.9722C21.5528 6 22.4406 4.2798 21.2538 3.23578C18.9642 1.22157 15.9603 0 12.671 0Z" fill="url(#paint0_linear_1_5269)"/>
<defs>
<linearGradient id="paint0_linear_1_5269" x1="12.671" y1="-1.78182e-10" x2="12.668" y2="23.5" gradientUnits="userSpaceOnUse">
<stop stop-color="#8A32F6"/>
<stop offset="1" stop-color="#8A32F6" stop-opacity="0"/>
</linearGradient>
</defs>
</svg>
