<svg width="73" height="73" viewBox="0 0 73 73" fill="none" xmlns="http://www.w3.org/2000/svg">
<g clip-path="url(#clip0_1_5246)">
<path d="M32.4606 30.4274C32.5458 30.0748 32.6996 29.7424 32.9132 29.4492C33.1269 29.156 33.3962 28.9078 33.7058 28.7187C34.0154 28.5296 34.3592 28.4033 34.7176 28.3471C35.076 28.2909 35.442 28.3058 35.7946 28.391L40.1444 29.442C40.4971 29.5272 40.8294 29.6811 41.1226 29.8947C41.4158 30.1084 41.664 30.3777 41.8531 30.6873C42.0422 30.9969 42.1685 31.3407 42.2247 31.6991C42.2809 32.0575 42.266 32.4235 42.1808 32.7761L36.4325 56.5665C36.2604 57.2786 35.8124 57.8933 35.1872 58.2752C34.5619 58.6571 33.8106 58.7749 33.0984 58.6029L28.7486 57.5518C28.0364 57.3798 27.4218 56.9318 27.0399 56.3066C26.658 55.6813 26.5401 54.93 26.7122 54.2178L32.4606 30.4274Z" stroke="#DBBCFF" stroke-width="2" stroke-linecap="round" stroke-linejoin="round"/>
<path d="M52.9957 19.9577C53.1678 19.2455 53.6157 18.6309 54.241 18.249C54.8662 17.8671 55.6176 17.7492 56.3298 17.9213L60.6796 18.9723C61.3917 19.1444 62.0064 19.5923 62.3883 20.2176C62.7702 20.8428 62.8881 21.5942 62.716 22.3064L53.4446 60.6771C53.2725 61.3893 52.8246 62.004 52.1993 62.3859C51.5741 62.7678 50.8227 62.8856 50.1106 62.7136L45.7607 61.6625C45.0486 61.4904 44.4339 61.0425 44.052 60.4173C43.6701 59.792 43.5523 59.0406 43.7243 58.3285L52.9957 19.9577Z" stroke="#DBBCFF" stroke-width="2" stroke-linecap="round" stroke-linejoin="round"/>
<path d="M10.228 47.9324C9.91656 49.2214 10.1299 50.5813 10.8211 51.713C11.5124 52.8447 12.6248 53.6554 13.9138 53.9669C15.2028 54.2783 16.5627 54.065 17.6944 53.3738C18.8261 52.6825 19.6368 51.5701 19.9483 50.2811C20.2597 48.9921 20.0464 47.6322 19.3552 46.5005C18.6639 45.3688 17.5515 44.5581 16.2625 44.2466C14.9735 43.9351 13.6136 44.1485 12.4819 44.8397C11.3502 45.5309 10.5395 46.6434 10.228 47.9324Z" stroke="#DBBCFF" stroke-width="2" stroke-linecap="round" stroke-linejoin="round"/>
</g>
<defs>
<clipPath id="clip0_1_5246">
<rect width="60" height="60" fill="white" transform="translate(14.0938) rotate(13.5838)"/>
</clipPath>
</defs>
</svg>
