<svg width="64" height="64" viewBox="0 0 64 64" fill="none" xmlns="http://www.w3.org/2000/svg">
<path d="M10.6924 15.3114C10.6548 14.6494 10.8818 13.9997 11.3233 13.505C11.7648 13.0104 12.3848 12.7114 13.0468 12.6738L47.9906 10.6912C48.6525 10.6536 49.3023 10.8806 49.797 11.3221C50.2916 11.7636 50.5906 12.3836 50.6282 13.0455L50.9114 18.0375C50.949 18.6995 50.722 19.3493 50.2805 19.8439C49.839 20.3386 49.219 20.6375 48.557 20.6751L13.6132 22.6578C12.9513 22.6953 12.3015 22.4684 11.8068 22.0268C11.3122 21.5853 11.0132 20.9654 10.9756 20.3034L10.6924 15.3114Z" stroke="#DBBCFF" stroke-width="2" stroke-linecap="round" stroke-linejoin="round"/>
<path d="M11.8252 35.2802C11.7877 34.6182 12.0146 33.9684 12.4561 33.4738C12.8977 32.9791 13.5176 32.6801 14.1796 32.6426L24.1635 32.0761C24.8255 32.0385 25.4753 32.2655 25.9699 32.707C26.4646 33.1485 26.7636 33.7685 26.8011 34.4305L27.6508 49.4064C27.6884 50.0684 27.4614 50.7181 27.0199 51.2128C26.5784 51.7074 25.9584 52.0064 25.2965 52.044L15.3125 52.6104C14.6505 52.648 14.0008 52.4211 13.5061 51.9795C13.0115 51.538 12.7125 50.9181 12.6749 50.2561L11.8252 35.2802Z" stroke="#DBBCFF" stroke-width="2" stroke-linecap="round" stroke-linejoin="round"/>
<path d="M36.6445 31.3672L51.6204 30.5175" stroke="#DBBCFF" stroke-width="2" stroke-linecap="round" stroke-linejoin="round"/>
<path d="M37.2109 41.3516L52.1869 40.5019" stroke="#DBBCFF" stroke-width="2" stroke-linecap="round" stroke-linejoin="round"/>
<path d="M37.7773 51.3359L52.7533 50.4862" stroke="#DBBCFF" stroke-width="2" stroke-linecap="round" stroke-linejoin="round"/>
</svg>
