<svg width="67" height="67" viewBox="0 0 67 67" fill="none" xmlns="http://www.w3.org/2000/svg">
<path d="M12.0476 23.4328C11.8868 22.1165 12.2555 20.7903 13.0726 19.7458C13.8897 18.7014 15.0882 18.0243 16.4045 17.8635L46.1832 14.2263C47.4995 14.0655 48.8258 14.4342 49.8702 15.2513C50.9147 16.0684 51.5918 17.2669 51.7525 18.5832L55.3898 48.3619C55.5505 49.6782 55.1818 51.0045 54.3647 52.0489C53.5477 53.0934 52.3491 53.7705 51.0328 53.9312L21.2541 57.5684C19.9378 57.7292 18.6116 57.3605 17.5671 56.5434C16.5227 55.7264 15.8456 54.5278 15.6848 53.2115L12.0476 23.4328Z" stroke="#DBBCFF" stroke-width="2" stroke-linecap="round" stroke-linejoin="round"/>
<path d="M40.6133 9.86914L41.8257 19.7954" stroke="#DBBCFF" stroke-width="2" stroke-linecap="round" stroke-linejoin="round"/>
<path d="M20.7617 12.2939L21.9741 22.2202" stroke="#DBBCFF" stroke-width="2" stroke-linecap="round" stroke-linejoin="round"/>
<path d="M13.2617 33.3594L52.9666 28.5097" stroke="#DBBCFF" stroke-width="2" stroke-linecap="round" stroke-linejoin="round"/>
<path d="M24.3984 42.0732L29.3616 41.467L29.9678 46.4302L25.0046 47.0364L24.3984 42.0732Z" stroke="#DBBCFF" stroke-width="2" stroke-linecap="round" stroke-linejoin="round"/>
</svg>
