<svg width="48" height="44" viewBox="0 0 48 44" fill="none" xmlns="http://www.w3.org/2000/svg">
<path d="M40.2461 34.4587C40.2461 34.4587 40.4253 34.3042 40.7102 34.0423C44.9752 30.0762 47.3871 24.6725 46.8654 18.9487C45.8926 8.27793 35.0698 0.533484 22.6962 1.66147C10.3225 2.78946 1.07843 12.3632 2.05117 23.034C3.02437 33.7097 13.8199 41.1554 26.1936 40.0274C27.2492 39.9312 28.9757 39.7035 31.373 39.3444C34.7011 41.0995 39.4398 42.357 43.4531 41.9911C44.6955 41.8779 45.1875 40.8038 44.2959 39.8357C42.9507 38.4622 41.0659 36.2366 40.2508 34.4557L40.2461 34.4587Z" stroke="#DBBCFF" stroke-width="2" stroke-linecap="round" stroke-linejoin="round"/>
</svg>
